<?xml version="1.0" encoding="UTF-8"?>
<!--Generator: Apple Native CoreSVG 175.5-->
<!DOCTYPE svg
PUBLIC "-//W3C//DTD SVG 1.1//EN"
       "http://www.w3.org/Graphics/SVG/1.1/DTD/svg11.dtd">
<svg version="1.1" xmlns="http://www.w3.org/2000/svg" xmlns:xlink="http://www.w3.org/1999/xlink" width="17.6327" height="17.6388">
 <g>
  <rect height="17.6388" opacity="0" width="17.6327" x="0" y="0"/>
  <path d="M8.81499 17.6388C13.6484 17.6388 17.6327 13.6545 17.6327 8.82378C17.6327 3.99911 13.6424 0.00878906 8.80893 0.00878906C3.98426 0.00878906 0 3.99911 0 8.82378C0 13.6545 3.99032 17.6388 8.81499 17.6388ZM14.6546 8.82712C14.6546 9.40087 13.8875 9.83338 12.9467 9.83338L11.0125 9.83338C10.7779 9.83338 10.6995 9.86854 10.5473 10.0295L7.40558 13.4585C7.29949 13.5734 7.15825 13.6443 7.01367 13.6443L6.46752 13.6443C6.30141 13.6443 6.20684 13.4897 6.28049 13.3182L7.86498 9.82125L5.52718 9.56909L4.69705 11.0799C4.62067 11.2184 4.51063 11.2779 4.33362 11.2779L4.12269 11.2779C3.9687 11.2779 3.87079 11.1793 3.87079 11.0199L3.87079 6.62555C3.87079 6.46884 3.9687 6.37365 4.12269 6.37365L4.33362 6.37365C4.51063 6.37365 4.62067 6.43579 4.69705 6.57158L5.52718 8.08242L7.86498 7.83026L6.28049 4.33336C6.20684 4.16452 6.30141 4.0072 6.46752 4.0072L7.01367 4.0072C7.15825 4.0072 7.29949 4.07206 7.40558 4.193L10.5473 7.62205C10.6995 7.7857 10.7779 7.81814 11.0125 7.81814L12.9467 7.81814C13.8875 7.81814 14.6546 8.25065 14.6546 8.82712Z" fill="#ffc600"/>
 </g>
</svg>
