<?xml version="1.0" encoding="UTF-8"?>
<!--Generator: Apple Native CoreSVG 175.5-->
<!DOCTYPE svg
PUBLIC "-//W3C//DTD SVG 1.1//EN"
       "http://www.w3.org/Graphics/SVG/1.1/DTD/svg11.dtd">
<svg version="1.1" xmlns="http://www.w3.org/2000/svg" xmlns:xlink="http://www.w3.org/1999/xlink" width="18.3349" height="18.3521">
 <g>
  <rect height="18.3521" opacity="0" width="18.3349" x="0" y="0"/>
  <path d="M9.16607 18.3521C14.1933 18.3521 18.3349 14.2105 18.3349 9.18325C18.3349 4.16477 14.1874 0.0171736 9.16008 0.0171736C4.1416 0.0171736 0 4.16477 0 9.18325C0 14.2105 4.14759 18.3521 9.16607 18.3521Z" fill="#ff453a"/>
  <path d="M5.08431 12.8572L8.38951 4.45378C8.68032 3.72675 9.64863 3.71196 9.93664 4.44179L13.2418 12.8572C13.5546 13.6389 12.7253 14.1599 12.1129 13.5447L9.40018 10.8347C9.25955 10.6853 9.07539 10.6853 8.93197 10.8347L6.222 13.5447C5.6008 14.1599 4.77154 13.6389 5.08431 12.8572Z" fill="#ffffff" fill-opacity="0.85"/>
 </g>
</svg>
