<?xml version="1.0" encoding="UTF-8"?>
<!--Generator: Apple Native CoreSVG 175.5-->
<!DOCTYPE svg
PUBLIC "-//W3C//DTD SVG 1.1//EN"
       "http://www.w3.org/Graphics/SVG/1.1/DTD/svg11.dtd">
<svg version="1.1" xmlns="http://www.w3.org/2000/svg" xmlns:xlink="http://www.w3.org/1999/xlink" width="28.3906" height="17.5373">
 <g>
  <rect height="17.5373" opacity="0" width="28.3906" x="0" y="0"/>
  <path d="M5.49237 17.5346C8.52012 17.5346 10.9787 15.0761 10.9787 12.0483C10.9787 9.0145 8.52618 6.562 5.49237 6.562C2.45856 6.562 0 9.0145 0 12.0483C0 15.0821 2.45856 17.5346 5.49237 17.5346ZM5.49237 16.4708C3.03733 16.4708 1.0699 14.5061 1.0699 12.0483C1.0699 9.60478 3.04339 7.62583 5.49237 7.62583C7.93591 7.62583 9.91485 9.6075 9.91485 12.0483C9.91485 14.4973 7.93591 16.4708 5.49237 16.4708ZM22.9043 17.5373C25.932 17.5373 28.3906 15.0815 28.3906 12.051C28.3906 9.01995 25.932 6.56745 22.9043 6.56745C19.8732 6.56745 17.4086 9.01995 17.4086 12.051C17.4086 15.0848 19.8732 17.5373 22.9043 17.5373ZM22.9043 16.4735C20.452 16.4735 18.4785 14.5115 18.4785 12.051C18.4785 9.6075 20.452 7.63128 22.9043 7.63128C25.3445 7.63128 27.3268 9.62235 27.3268 12.051C27.3268 14.5 25.3445 16.4735 22.9043 16.4735ZM15.0698 0.53297C15.0698 0.823713 15.3066 1.05443 15.6001 1.05443L17.9827 1.05443C18.0584 1.05443 18.0869 1.07473 18.1106 1.12685L22.3378 12.0988L23.3234 11.7548L18.9546 0.498956C18.8209 0.142471 18.5826 0.00272459 18.1573 0.00272459L15.6001 0.00272459C15.3066 0.00272459 15.0698 0.239502 15.0698 0.53297ZM20.3859 5.74532L20.3859 4.75761L11.077 6.15867L11.077 7.14639ZM13.1952 12.6846L13.1952 11.6942L5.61568 11.6942L5.61568 12.6846ZM14.2437 13.7814C15.1815 13.7814 15.9396 13.0206 15.9396 12.0916C15.9396 11.1538 15.1815 10.4019 14.2437 10.4019C13.3026 10.4019 12.5567 11.1478 12.5506 12.0916C12.5385 13.0146 13.2965 13.7814 14.2437 13.7814ZM14.2552 12.8334C13.835 12.8334 13.5047 12.4998 13.5047 12.0977C13.5047 11.6808 13.835 11.3498 14.2552 11.3498C14.6667 11.3498 14.991 11.6747 14.991 12.0977C14.991 12.5031 14.6667 12.8334 14.2552 12.8334ZM5.49237 13.0329C6.03527 13.0329 6.48027 12.5912 6.48027 12.0483C6.48027 11.4993 6.04134 11.0604 5.49237 11.0604C4.94341 11.0604 4.51389 11.4933 4.50782 12.0483C4.50176 12.5912 4.93734 13.0329 5.49237 13.0329ZM22.9043 13.0417C23.456 13.0417 23.8888 12.5967 23.8888 12.051C23.8888 11.5021 23.4621 11.0692 22.9043 11.0692C22.3553 11.0692 21.9225 11.496 21.9164 12.051C21.9103 12.5967 22.3493 13.0417 22.9043 13.0417ZM14.1956 10.7445L15.0678 11.2553L20.4174 5.37662L19.2407 5.25577ZM5.08008 11.647L5.94897 12.1551L11.2493 6.8168L10.4489 6.17959ZM13.1174 11.3984L13.9863 10.7805L9.94957 3.32385L8.92547 3.55061ZM7.38817 3.22163C7.38817 3.5151 7.62495 3.74581 7.91569 3.74581L11.1736 3.74581C11.4644 3.74581 11.7011 3.5151 11.7011 3.22163C11.7011 2.93695 11.4583 2.69411 11.1736 2.69411L7.91569 2.69411C7.63102 2.69411 7.38817 2.93695 7.38817 3.22163Z" fill="#ffc600"/>
 </g>
</svg>
