<?xml version="1.0" encoding="UTF-8"?>
<!--Generator: Apple Native CoreSVG 175.5-->
<!DOCTYPE svg
PUBLIC "-//W3C//DTD SVG 1.1//EN"
       "http://www.w3.org/Graphics/SVG/1.1/DTD/svg11.dtd">
<svg version="1.1" xmlns="http://www.w3.org/2000/svg" xmlns:xlink="http://www.w3.org/1999/xlink" width="18.9106" height="20.1192">
 <g>
  <rect height="20.1192" opacity="0" width="18.9106" x="0" y="0"/>
  <path d="M1.14056 15.5833C1.14056 16.12 1.29876 16.5404 1.5888 16.8323L1.5888 18.9551C1.5888 19.5864 2.07888 20.088 2.72171 20.088L3.7343 20.088C4.37441 20.088 4.87055 19.5919 4.87055 18.9551L4.87055 17.5728C6.2826 17.6694 7.81893 17.7195 9.44983 17.7195C11.0807 17.7195 12.6286 17.6694 14.0433 17.5755L14.0433 18.9551C14.0433 19.5919 14.5361 20.088 15.1763 20.088L16.1888 20.088C16.8289 20.088 17.3278 19.5864 17.3278 18.9551L17.3278 16.8323C17.6179 16.5404 17.7761 16.12 17.7761 15.5833L17.7761 2.13618C17.7761 1.04871 17.1326 0.463711 16.019 0.33126C14.1685 0.111533 11.8205 0 9.44983 0C7.07643 0 4.72781 0.120322 2.89152 0.33126C1.77794 0.463711 1.14056 1.04871 1.14056 2.13618ZM9.44983 16.8024C6.95575 16.8024 4.77818 16.6936 3.11195 16.4921C2.34035 16.4014 2.05216 16.0365 2.05216 15.3516L2.05216 2.36786C2.05216 1.69172 2.39827 1.31467 3.11195 1.22739C4.75664 1.02859 7.03187 0.914328 9.44983 0.917053C11.8114 0.922502 14.0839 1.02859 15.7959 1.22739C16.5675 1.31529 16.8617 1.68566 16.8617 2.36786L16.8617 15.3516C16.8617 16.0365 16.5675 16.4042 15.7959 16.4921C14.0597 16.6936 11.8876 16.8024 9.44983 16.8024ZM3.74151 11.8472C7.20194 12.3207 11.6638 12.3295 15.1751 11.8472C15.6961 11.7696 15.9625 11.462 15.9625 10.914L15.9625 3.10746C15.9625 2.51095 15.6719 2.16967 15.099 2.1136C11.4339 1.74841 7.52212 1.75175 3.82368 2.1136C3.25415 2.16967 2.95409 2.51095 2.95409 3.10746L2.95409 10.914C2.95409 11.462 3.22383 11.7696 3.74151 11.8472ZM1.59469 8.08084L1.59469 3.20291L0.734151 3.20291C0.282833 3.20291 0 3.47238 0 3.88644L0 7.40338C0 7.81743 0.282833 8.08084 0.734151 8.08084ZM17.3159 8.08084L18.1764 8.08084C18.625 8.08084 18.9106 7.81743 18.9106 7.40338L18.9106 3.88644C18.9106 3.47238 18.625 3.20291 18.1764 3.20291L17.3159 3.20291ZM4.44217 15.293C5.0023 15.293 5.41846 14.8707 5.41846 14.3167C5.41846 13.7566 5.0023 13.3377 4.44217 13.3377C3.88204 13.3377 3.46043 13.7566 3.46043 14.3167C3.46043 14.8707 3.88204 15.293 4.44217 15.293ZM7.33896 15.0093L11.5383 15.0093C11.9538 15.0093 12.243 14.7201 12.243 14.3046C12.243 13.8857 11.9538 13.6026 11.5383 13.6026L7.33896 13.6026C6.91735 13.6026 6.62819 13.8857 6.62819 14.3046C6.62819 14.7201 6.91735 15.0093 7.33896 15.0093ZM14.4684 15.293C15.0285 15.293 15.4535 14.8707 15.4535 14.3167C15.4535 13.7566 15.0285 13.3377 14.4684 13.3377C13.9143 13.3377 13.4982 13.7566 13.4982 14.3167C13.4982 14.8707 13.9143 15.293 14.4684 15.293Z" fill="#ffc600"/>
 </g>
</svg>
