<?xml version="1.0" encoding="UTF-8"?>
<!--Generator: Apple Native CoreSVG 175.5-->
<!DOCTYPE svg
PUBLIC "-//W3C//DTD SVG 1.1//EN"
       "http://www.w3.org/Graphics/SVG/1.1/DTD/svg11.dtd">
<svg version="1.1" xmlns="http://www.w3.org/2000/svg" xmlns:xlink="http://www.w3.org/1999/xlink" width="11.5166" height="19.2175">
 <g>
  <rect height="19.2175" opacity="0" width="11.5166" x="0" y="0"/>
  <path d="M1.40706 18.4682L3.98445 15.4007C4.23388 15.0986 4.27783 15.0337 4.37785 14.7139L4.58483 14.0618L3.22701 12.36L2.79362 14.3518L0.248656 17.3719C-0.544821 18.3242 0.757543 19.2529 1.40706 18.4682ZM7.70442 18.2154C8.23027 19.2677 9.78479 18.6182 9.21772 17.472L7.46562 13.932C7.33317 13.6704 7.15132 13.3852 6.98433 13.1452L5.87234 11.5695L5.95144 11.3295C6.2421 10.4399 6.35908 9.90862 6.42394 9.03059L6.597 6.55321C6.68216 5.37091 5.97842 4.50044 4.79638 4.50044C3.90078 4.50044 3.28704 4.95264 2.45902 5.7658L1.14699 7.06298C0.732055 7.47185 0.58598 7.80706 0.542035 8.36745L0.386557 10.3926C0.345336 10.9009 0.621752 11.251 1.08608 11.2658C1.55919 11.301 1.84167 11.0273 1.88562 10.4866L2.07959 8.25926L2.71302 7.69008C2.94488 7.48187 3.2655 7.61432 3.25126 7.86525L3.11336 9.74101C3.03699 10.6921 3.25733 11.1388 3.90895 11.9547L5.64681 14.1299C5.82259 14.353 5.83745 14.4409 5.91382 14.5788ZM10.6731 7.84644L8.68915 7.84644L7.39838 6.41233L7.25714 8.4433L7.81595 9.00211C8.08903 9.27519 8.32422 9.36035 8.8325 9.36035L10.6731 9.36035C11.1814 9.36035 11.5166 9.0697 11.5166 8.60203C11.5166 8.1465 11.1753 7.84644 10.6731 7.84644ZM5.73989 3.71215C6.76188 3.71215 7.5899 2.88079 7.5899 1.85607C7.5899 0.825293 6.76188 0 5.73989 0C4.70911 0 3.88381 0.825293 3.88381 1.85607C3.88381 2.88079 4.70911 3.71215 5.73989 3.71215Z" fill="#ffc600"/>
 </g>
</svg>
