<?xml version="1.0" encoding="UTF-8"?>
<!--Generator: Apple Native CoreSVG 175.5-->
<!DOCTYPE svg
PUBLIC "-//W3C//DTD SVG 1.1//EN"
       "http://www.w3.org/Graphics/SVG/1.1/DTD/svg11.dtd">
<svg version="1.1" xmlns="http://www.w3.org/2000/svg" xmlns:xlink="http://www.w3.org/1999/xlink" width="19.6957" height="15.8822">
 <g>
  <rect height="15.8822" opacity="0" width="19.6957" x="0" y="0"/>
  <path d="M2.59084 15.7952L17.2786 15.7952C18.8191 15.7952 19.6957 14.9165 19.6957 13.2259L19.6957 4.18588C19.6957 2.49522 18.8131 1.6193 17.1048 1.6193L8.60739 1.6193C7.93617 1.6193 7.584 1.49502 7.1282 1.08439L6.61931 0.650391C6.04195 0.139131 5.64548 0 4.76174 0L2.26231 0C0.803233 0 0 0.797169 0 2.40302L0 13.2259C0 14.9308 0.876534 15.7952 2.59084 15.7952ZM2.61114 14.7071C1.62053 14.7071 1.08809 14.1868 1.08809 13.1719L1.08809 2.47395C1.08809 1.54116 1.55874 1.07385 2.47061 1.07385L4.49947 1.07385C5.14222 1.07385 5.48016 1.20692 5.95564 1.62844L6.46181 2.06851C7.01402 2.54857 7.4526 2.70466 8.33906 2.70466L17.0785 2.70466C18.0494 2.70466 18.6103 3.23104 18.6103 4.24591L18.6103 13.178C18.6103 14.1868 18.0494 14.7071 17.0785 14.7071ZM0.651535 5.9487L19.049 5.9487L19.049 4.92126L0.651535 4.92126Z" fill="#ffc600"/>
 </g>
</svg>
