<?xml version="1.0" encoding="UTF-8"?>
<!--Generator: Apple Native CoreSVG 175.5-->
<!DOCTYPE svg
PUBLIC "-//W3C//DTD SVG 1.1//EN"
       "http://www.w3.org/Graphics/SVG/1.1/DTD/svg11.dtd">
<svg version="1.1" xmlns="http://www.w3.org/2000/svg" xmlns:xlink="http://www.w3.org/1999/xlink" width="17.7602" height="19.2869">
 <g>
  <rect height="19.2869" opacity="0" width="17.7602" x="0" y="0"/>
  <path d="M13.3063 18.7449L13.3063 2.21335C13.3063 0.791016 12.5235 0 11.0929 0L3.44549 0C2.00619 0 1.24972 0.782842 1.24972 2.21335L1.24972 18.7449L2.32084 18.7449L2.33236 2.23365C2.33236 1.48439 2.70501 1.08809 3.47186 1.08809L11.0666 1.08809C11.8077 1.08809 12.2176 1.48377 12.2176 2.23365L12.2203 18.7449ZM0 18.7269C0 19.0298 0.228604 19.2814 0.530861 19.2814L14.0048 19.2814C14.3044 19.2814 14.5445 19.0298 14.5445 18.7269C14.5445 18.4389 14.3017 18.1961 14.0048 18.1961L0.530861 18.1961C0.240118 18.1961 0 18.4329 0 18.7269ZM4.24723 9.40975L10.2912 9.40975C10.8338 9.40975 11.1999 9.07453 11.1999 8.5711L11.1999 3.0542C11.1999 2.54804 10.8222 2.2007 10.2912 2.2007L4.24723 2.2007C3.7162 2.2007 3.35611 2.54804 3.35611 3.0542L3.35611 8.5711C3.35611 9.07453 3.71075 9.40975 4.24723 9.40975ZM12.7821 11.3545L13.3915 11.3545C13.8639 11.3545 14.1617 11.643 14.1617 12.1451L14.1617 15.1496C14.1617 16.2614 14.8522 16.9492 15.9667 16.9492C17.0758 16.9492 17.7602 16.2614 17.7602 15.1496L17.7602 4.53832C17.7602 4.11723 17.6523 3.7974 17.4328 3.45032L16.2206 1.49642C15.8595 0.926187 15.0425 1.43428 15.3947 2.00513L16.47 3.73227C16.5503 3.86323 16.5415 4.01238 16.4552 4.14061L15.3365 5.72177C15.0267 6.15313 15.0576 6.56358 15.3823 6.94767L16.788 8.60159L16.788 15.1496C16.788 15.6596 16.468 15.9797 15.9667 15.9797C15.454 15.9797 15.14 15.6596 15.14 15.1496L15.14 12.1451C15.14 11.0412 14.4657 10.385 13.3915 10.385L12.7821 10.385Z" fill="#ffc600"/>
 </g>
</svg>
