<?xml version="1.0" encoding="UTF-8"?>
<!--Generator: Apple Native CoreSVG 175.5-->
<!DOCTYPE svg
PUBLIC "-//W3C//DTD SVG 1.1//EN"
       "http://www.w3.org/Graphics/SVG/1.1/DTD/svg11.dtd">
<svg version="1.1" xmlns="http://www.w3.org/2000/svg" xmlns:xlink="http://www.w3.org/1999/xlink" width="18.3349" height="18.3353">
 <g>
  <rect height="18.3353" opacity="0" width="18.3349" x="0" y="0"/>
  <path d="M9.16607 18.3321C14.1933 18.3321 18.3349 14.1874 18.3349 9.16607C18.3349 4.1388 14.1874 0 9.16008 0C4.1416 0 0 4.1388 0 9.16607C0 14.1874 4.14759 18.3321 9.16607 18.3321Z" fill="#ff453a"/>
  <path d="M3.51706 8.51962C3.51706 8.37741 3.58936 8.22362 3.71399 8.11017L8.44383 4.1498C8.88085 3.77389 9.47167 3.77389 9.91469 4.1498L11.9515 5.86183L11.9515 5.11468C11.9515 4.91254 12.0982 4.77471 12.3003 4.77471L12.9889 4.77471C13.1971 4.77471 13.3261 4.91254 13.3261 5.11468L13.3261 7.0211L14.6325 8.10738C14.7604 8.22083 14.8267 8.36542 14.8267 8.5344C14.8267 8.8276 14.6026 9.02254 14.3038 9.02254C14.1464 9.02254 14.013 8.93745 13.8819 8.83279L9.42254 5.08453C9.25915 4.9563 9.09657 4.94431 8.92998 5.08453L4.46179 8.83279C4.33676 8.93745 4.20334 9.02254 4.03996 9.02254C3.71719 9.02254 3.51706 8.79484 3.51706 8.51962ZM5.03996 12.643L5.03996 9.24378L8.88482 6.02055C9.06939 5.86834 9.27434 5.86234 9.45891 6.02055L13.3038 9.24977L13.3038 12.643C13.3038 13.299 12.8775 13.7112 12.1868 13.7112L6.16573 13.7112C5.46661 13.7112 5.03996 13.299 5.03996 12.643ZM7.96675 12.6993L10.3802 12.6993L10.3802 9.91068C10.3802 9.69375 10.2511 9.54992 10.0194 9.54992L8.3303 9.54992C8.11017 9.54992 7.96675 9.69375 7.96675 9.91068Z" fill="#ffffff" fill-opacity="0.85"/>
 </g>
</svg>
