<?xml version="1.0" encoding="UTF-8"?>
<!--Generator: Apple Native CoreSVG 175.5-->
<!DOCTYPE svg
PUBLIC "-//W3C//DTD SVG 1.1//EN"
       "http://www.w3.org/Graphics/SVG/1.1/DTD/svg11.dtd">
<svg version="1.1" xmlns="http://www.w3.org/2000/svg" xmlns:xlink="http://www.w3.org/1999/xlink" width="18.3349" height="18.3521">
 <g>
  <rect height="18.3521" opacity="0" width="18.3349" x="0" y="0"/>
  <path d="M9.16607 18.3521C14.1933 18.3521 18.3349 14.2105 18.3349 9.18325C18.3349 4.16477 14.1874 0.0171736 9.16008 0.0171736C4.1416 0.0171736 0 4.16477 0 9.18325C0 14.2105 4.14759 18.3521 9.16607 18.3521Z" fill="#ff453a"/>
  <path d="M3.45359 7.52377C3.45359 7.26572 3.61896 7.00367 3.91937 6.86665L7.99834 5.00734C8.44618 4.80839 8.80293 4.70612 9.16008 4.71211C9.51723 4.70612 9.88277 4.80839 10.3246 5.00734L14.4068 6.86665C14.71 7.00367 14.8694 7.26572 14.8694 7.52377C14.8694 7.7938 14.71 8.04107 14.4068 8.17809L10.3246 10.0522C9.88556 10.2511 9.51723 10.3446 9.16008 10.3358C8.80293 10.3446 8.44338 10.2511 7.99834 10.0522L6.1918 9.22043L8.73144 8.04229C8.86287 8.08303 9.01747 8.1062 9.17207 8.1062C9.67422 8.1062 10.1536 7.87011 10.1536 7.52377C10.1536 7.18063 9.67422 6.96211 9.17207 6.96211C8.6815 6.96211 8.18733 7.18063 8.18733 7.52377C8.18733 7.55054 8.19332 7.58331 8.20531 7.60688L5.46636 8.87409L3.91937 8.17809C3.61896 8.04387 3.45359 7.7938 3.45359 7.52377ZM4.98851 10.6136L4.98851 9.3822L5.47834 9.60954L5.47834 11.7418C5.16551 11.383 4.98851 10.9743 4.98851 10.6136ZM5.11803 14.0672L5.11803 13.2119C5.11803 12.9294 5.25744 12.7229 5.47834 12.641L5.47834 11.7418C5.66531 11.9539 5.89779 12.1485 6.17702 12.3055L6.17702 12.647C6.39472 12.7289 6.54292 12.9354 6.54292 13.2119L6.54292 14.0672C6.54292 14.4432 6.29245 14.682 5.92493 14.682L5.72723 14.682C5.34813 14.682 5.11803 14.4432 5.11803 14.0672ZM6.17702 12.3055L6.17702 9.92951L7.73268 10.6474C8.25043 10.8843 8.72423 10.9986 9.16008 10.987C9.59593 10.9986 10.0753 10.8815 10.5903 10.6474L13.3316 9.3822L13.3316 10.6136C13.3316 11.9407 11.6179 12.999 9.16008 12.999C7.94958 12.999 6.90809 12.7445 6.17702 12.3055Z" fill="#ffffff" fill-opacity="0.85"/>
 </g>
</svg>
