<?xml version="1.0" encoding="UTF-8"?>
<!--Generator: Apple Native CoreSVG 175.5-->
<!DOCTYPE svg
PUBLIC "-//W3C//DTD SVG 1.1//EN"
       "http://www.w3.org/Graphics/SVG/1.1/DTD/svg11.dtd">
<svg version="1.1" xmlns="http://www.w3.org/2000/svg" xmlns:xlink="http://www.w3.org/1999/xlink" width="15.555" height="21.6995">
 <g>
  <rect height="21.6995" opacity="0" width="15.555" x="0" y="0"/>
  <path d="M3.16415 18.32L12.3908 18.32C14.4838 18.32 15.555 16.9313 15.555 15.0961L15.555 9.67149C15.555 7.11167 15.1847 4.56873 14.7919 3.05904C14.3933 1.43552 13.2376 0.369141 11.6874 0.192129C10.9684 0.108809 9.45211 0 7.77612 0C5.9843 0 4.58051 0.108809 3.86754 0.192129C2.31135 0.369141 1.16165 1.43552 0.760341 3.05904C0.364218 4.56873 0 7.05982 0 9.61963L0 15.0961C0 16.9313 1.07121 18.32 3.16415 18.32ZM3.3024 17.4057C1.59838 17.4057 0.911603 16.3929 0.911603 15.0961L0.911603 9.61963C0.911603 7.1035 1.30307 4.67913 1.65859 3.2458C1.95987 2.01516 2.79914 1.23284 3.96273 1.09828C4.75383 0.992551 6.10699 0.911603 7.77612 0.911603C9.33214 0.911603 10.7951 0.992551 11.5862 1.09828C12.7558 1.23284 13.5951 2.01516 13.8964 3.2458C14.2492 4.67913 14.6406 7.15535 14.6406 9.67149L14.6406 15.0961C14.6406 16.3929 13.9566 17.4057 12.2438 17.4057ZM5.48253 3.19861L10.0637 3.19861C10.3568 3.19861 10.5405 3.0034 10.5405 2.71907C10.5405 2.4402 10.3568 2.25712 10.0637 2.25712L5.48253 2.25712C5.19548 2.25712 5.01451 2.4402 5.01451 2.71907C5.01451 3.0034 5.19548 3.19861 5.48253 3.19861ZM7.77612 12.428C9.8296 12.4131 11.4278 12.3362 12.4397 12.2301C12.997 12.1652 13.2564 11.8006 13.2564 11.2649L13.2564 9.17253C13.2564 7.50612 13.0766 6.09803 12.9115 5.29691C12.8236 4.86387 12.5312 4.5581 12.0866 4.51143C11.128 4.39928 9.99493 4.33503 7.77612 4.32897C5.54581 4.33503 4.41272 4.39928 3.39776 4.51415C2.98986 4.5581 2.71714 4.86387 2.62925 5.29691C2.4641 6.09803 2.28437 7.50612 2.28437 9.17253L2.28437 11.2649C2.28437 11.8006 2.54373 12.1652 3.10105 12.2301C4.11293 12.3362 5.71113 12.4131 7.77612 12.428ZM3.67559 15.9011C4.32299 15.9011 4.82036 15.4186 4.82036 14.759C4.82036 14.1056 4.33512 13.6318 3.67559 13.6318C3.02212 13.6318 2.54839 14.1056 2.54839 14.759C2.54839 15.4186 3.02212 15.9011 3.67559 15.9011ZM11.8754 15.9044C12.5113 15.9044 13.0148 15.4125 13.0148 14.759C13.0148 14.1116 12.5201 13.6258 11.8754 13.6258C11.222 13.6258 10.7246 14.1116 10.7246 14.759C10.7246 15.4125 11.222 15.9044 11.8754 15.9044ZM1.76405 21.641L2.19903 21.641C2.40908 21.641 2.52519 21.5667 2.63795 21.3857L4.9515 17.6573L3.52345 17.6573L1.43939 21.0044C1.24629 21.3136 1.41363 21.641 1.76405 21.641ZM2.59471 20.5799L12.9757 20.5799L12.9757 19.444L2.59471 19.444ZM13.3748 21.641L13.8125 21.641C14.1541 21.641 14.3032 21.3075 14.1162 21.0044L12.0443 17.6573L10.6162 17.6573L12.9298 21.3857C13.0453 21.5667 13.1586 21.641 13.3748 21.641Z" fill="#ffc600"/>
 </g>
</svg>
