<?xml version="1.0" encoding="UTF-8"?>
<!--Generator: Apple Native CoreSVG 175.5-->
<!DOCTYPE svg
PUBLIC "-//W3C//DTD SVG 1.1//EN"
       "http://www.w3.org/Graphics/SVG/1.1/DTD/svg11.dtd">
<svg version="1.1" xmlns="http://www.w3.org/2000/svg" xmlns:xlink="http://www.w3.org/1999/xlink" width="18.3349" height="18.3521">
 <g>
  <rect height="18.3521" opacity="0" width="18.3349" x="0" y="0"/>
  <path d="M9.16607 18.3521C14.1933 18.3521 18.3349 14.2105 18.3349 9.18325C18.3349 4.16477 14.1874 0.0171736 9.16008 0.0171736C4.1416 0.0171736 0 4.16477 0 9.18325C0 14.2105 4.14759 18.3521 9.16607 18.3521Z" fill="#ac8e68"/>
  <path d="M4.16102 11.6966L4.16102 8.61387C5.51733 9.11165 6.71069 9.33218 7.93601 9.42566L7.93601 9.76406C7.93601 10.106 8.13455 10.305 8.47891 10.305L9.86802 10.305C10.2124 10.305 10.4109 10.106 10.4109 9.76406L10.4109 9.42566C11.6362 9.33218 12.8296 9.11165 14.1919 8.61387L14.1919 11.6966C14.1919 12.6518 13.6945 13.14 12.7453 13.14L5.60161 13.14C4.65239 13.14 4.16102 12.6518 4.16102 11.6966ZM4.16102 7.69628L4.16102 7.4058C4.16102 6.45937 4.65239 5.9684 5.60161 5.9684L6.45382 5.9684L6.45382 5.4946C6.45382 4.7711 6.92564 4.33724 7.70304 4.33724L10.6439 4.33724C11.4213 4.33724 11.8931 4.7711 11.8931 5.4946L11.8931 5.9684L12.7453 5.9684C13.6945 5.9684 14.1919 6.45937 14.1919 7.4058L14.1919 7.69628C12.5842 8.35987 10.9151 8.63671 9.17207 8.63671C7.4318 8.63671 5.76268 8.35987 4.16102 7.69628ZM7.43573 5.9684L10.9112 5.9684L10.9112 5.53575C10.9112 5.34316 10.7781 5.23608 10.5768 5.23608L7.77016 5.23608C7.56279 5.23608 7.43573 5.34316 7.43573 5.53575Z" fill="#ffffff"/>
 </g>
</svg>
